<?xml version="1.0" encoding="UTF-8"?>
<svg id="Livello_1" data-name="Livello 1" xmlns="http://www.w3.org/2000/svg" viewBox="0 0 1024 1024">
  <defs>
    <style>
      .cls-1 {
        fill: #fdf1f5;
      }

      .cls-2 {
        fill: #090a0a;
      }

      .cls-3 {
        fill: #f80786;
      }
    </style>
  </defs>
  <path class="cls-2" d="M0,0h1024v1024H0V0ZM620.79,727.22c4.65-.79,6.4-.5,10.73.1,8.8,1.2,19.27,1.17,28.17.08,4.76-.58,7.01-.17,11.81-.06l24.51.61c8.95.22,16.9-5.25,20.99-13.18l-.15-409.65c-7.81-20.1-30.19-14.53-47.96-13.8l-14.81-1.54c-6.37.13-12.02.79-17.9,1.96-5.71-1.24-11.24-2.61-17.24-1.95l-16.03,1.74c-12.21-1.23-24.26-3.63-36.32,1.34-6.9,2.85-13.44,10.94-13.46,19.14l-.25,109.9c-8.19-6.84-10.92-15.29-15.72-23.05l-17.2-27.81-12.25-19.92-28.78-47.04c-3.39-5.53-7.43-10.09-14.14-12.03-12.04-3.48-25.24-2.65-37.83.11-13.04-3.02-25.96-3.19-39.07-.02l-6.79-1.11c-6.35-2.15-12.38-1.17-18.15,1.86l-69.92-.32.1,81.59-.04,332.03c3.22,11.96,10.07,20.28,22.03,21.83l21.78-.35h12.21s21.78,0,21.78,0h12.23s21.77,0,21.77,0l12.25-.03c7.64-.02,16,.86,23.22-.18,12.29-1.78,19.07-11.02,20.67-22.89l.04-101.32c-1-1.56-1.52-5.73-.13-6.16,2.21-.45,3.5,2.89,4.49,4.5l27.85,45.16,13.36,21.73,26.94,43.93c4.55,7.43,9.87,15.1,19.91,15.22l27.16.32c3.89-2.57,7.81-2.55,11.68,0,9.25-.14,19.19.85,28.47-.73Z"/>
  <path class="cls-3" d="M620.79,727.22c-9.28,1.58-19.23.59-28.47.73-3.87-2.56-7.79-2.58-11.68,0l-27.16-.32c-10.04-.12-15.36-7.79-19.91-15.22l-26.94-43.93-13.36-21.73-27.85-45.16c-.99-1.6-2.28-4.95-4.49-4.5-1.39.43-.87,4.61.13,6.16l-.04,101.32c-1.6,11.88-8.38,21.12-20.67,22.89-7.22,1.04-15.58.17-23.22.18l-12.25.03h-21.77s-12.23,0-12.23,0h-21.78s-12.21,0-12.21,0l-21.78.35c-11.96-1.55-18.81-9.87-22.03-21.83l.04-332.03-.1-81.59,69.92.32c5.78-3.03,11.8-4.01,18.15-1.86l6.79,1.11c13.11-3.17,26.03-3,39.07.02,12.59-2.77,25.78-3.59,37.83-.11,6.71,1.94,10.76,6.5,14.14,12.03l28.78,47.04,12.25,19.92,17.2,27.81c4.8,7.76,7.53,16.21,15.72,23.05l.25-109.9c.02-8.19,6.56-16.29,13.46-19.14,12.05-4.97,24.1-2.56,36.32-1.34l16.03-1.74c6-.65,11.53.72,17.24,1.95,5.88-1.17,11.53-1.83,17.9-1.96l14.81,1.54c17.77-.73,40.15-6.3,47.96,13.8l.15,409.65c-4.09,7.94-12.04,13.4-20.99,13.18l-24.51-.61c-4.8-.12-7.06-.53-11.81.06-8.91,1.09-19.38,1.12-28.17-.08-4.32-.59-6.07-.89-10.73-.1ZM554.55,701.64c1.02,1.66,3.37,2.79,5.27,2.77l13.13-.14c.87,0,3.05-.12,2.99-.91l-.25-3.05-17.57-27.53-18.43-30.61-16.72-27.35-11.15-17.75-16.17-26.84-17.16-27.84-24.26-39.63-19.76-32.13-17.88-29.44-17.87-29.05-25.77-42.08-11.84-19.26-19.61-32.36c-1.93-3.18-3.41-5.15-7.49-5.15h-13.16c-1.78,0-3.75,1.46-3.75,4v386.03c3.15,1.19,7.2,1.03,9.84.96,1.83-.05,7.54.51,7.98-1.61l.07-355.66c6.33,5.85,9.03,12.09,12.87,18.33l32.32,52.54,15.62,25.41,23.62,38.34,12.13,19.89,24.34,39.71,17.21,27.78,21.29,34.65,16.32,26.8,10.01,15.94,20.07,32.82,13.77,22.45ZM562.42,549.55l-10.18-16.88-19.75-32.07-17.85-29.27-17.9-29.25-13.86-22.04-15.92-26.24-19.05-30.98-27.19-44.68c-1.47-2.42-2.72-4.81-5.65-4.82l-15.12-.04c-.57,0-2.41.15-2.41.7v2.93s219.23,357.17,219.23,357.17l15.99,26.3c1.3,2.15,3.64,4.27,6.15,4.24l16.58-.18c.43-1.29.02-4.13-.72-5.32l-25.77-41.29-10.85-18.14-14.63-23.37-27.66-45.2-13.44-21.57ZM613.44,698.04l-17.05-27.66-22.76-37.05-20.15-32.79-17.93-28.97-20.47-33.65-12.64-20.45-22.43-36.4-19.78-32.21-19.77-32.37-16.39-26.66-26.91-43.85-14.66-23.43-5.57-8.57h-18.94s.62,4.37.62,4.37c8.15,11.8,15.12,23.32,22.38,35.69l29.34,47.64,12.21,19.89,31.16,50.74,26.27,42.68,13.38,21.73,33.37,54.51,16.37,26.51,17.53,28.62,5.79,9.26,27.29,44.67c1.29,2.11,3.77,3.95,6.13,3.88l15.77-.45c.57-1.74-1.09-3.96-2.15-5.68ZM677.98,314.34l-.09,357.88c-8.47-10.94-14.19-21.05-20.6-31.54l-14.66-24.3-12.35-19.77-27.31-44.52-16.7-27.16-17.89-29.44-21.66-35.32-17.63-28.31-10.1-16.92-17.93-29.07-25.75-42.16-18.5-29.72-20.45.34,19.03,31.33,11.83,19.06,15.87,26.23,16.83,27.16,40.16,65.71,27.04,44.02,19.35,31.71,21.66,35.39,17.21,27.76,27.32,44.61,22.49,36.59,20.9-.28-.02-389.52-18.03.24ZM594.93,513.06l-.05-199-18.8.23-.02,173.2,13.85,23.6,1.79,2.93c.32.52,2.61-.39,3.24-.96ZM628.13,562.89v-242.33c0-2.41,2.08-6.59-2.48-6.5l-15.71.32.02,229.05,16.74,27.14c3.84-1.85,1.44-4.13,1.44-7.69ZM662.03,624.9l-.02-310.49-18.05-.02.02,285.13,15.19,26.1c.31.06,2.13-.41,2.87-.72ZM369.06,703.37l-.03-285.87-16.19-25.59c-.82.07-2.94.94-2.73,1.69l.84,3.01.02,306.97c6.33.6,11.79.66,18.08-.2ZM402.93,703.4v-228.78s-15.01-25.53-15.01-25.53l-2.33-1.17c-.51-.26-1.54,1.74-1.54,2.35v249.55c0,2.14,2.08,4.44,3.69,4.35l15.19-.77ZM436.97,703.44l-.03-172.94-15.22-26.32-2.11-1.25c-.49-.29-1.49,1.73-1.49,2.3v194.63c0,2.1,1.97,4.38,3.63,4.31l15.22-.73Z"/>
  <path class="cls-1" d="M554.55,701.64l-13.77-22.45-20.07-32.82-10.01-15.94-16.32-26.8-21.29-34.65-17.21-27.78-24.34-39.71-12.13-19.89-23.62-38.34-15.62-25.41-32.32-52.54c-3.84-6.25-6.54-12.48-12.87-18.33l-.07,355.66c-.44,2.12-6.15,1.56-7.98,1.61-2.64.07-6.69.23-9.83-.96v-386.03c0-2.54,1.97-4,3.75-4h13.16c4.08,0,5.56,1.97,7.49,5.16l19.61,32.36,11.84,19.26,25.77,42.08,17.87,29.05,17.88,29.44,19.76,32.13,24.26,39.63,17.16,27.84,16.17,26.84,11.15,17.75,16.72,27.35,18.43,30.61,17.57,27.53.25,3.05c.07.79-2.12.9-2.99.91l-13.13.14c-1.89.02-4.25-1.11-5.27-2.77Z"/>
  <path class="cls-1" d="M677.98,314.34l18.03-.24.02,389.52-20.9.28-22.49-36.59-27.32-44.61-17.21-27.76-21.66-35.39-19.35-31.71-27.04-44.02-40.16-65.71-16.83-27.16-15.87-26.23-11.83-19.06-19.03-31.33,20.45-.34,18.5,29.72,25.75,42.16,17.93,29.07,10.1,16.92,17.63,28.31,21.66,35.32,17.89,29.44,16.7,27.16,27.31,44.52,12.35,19.77,14.66,24.3c6.41,10.49,12.13,20.6,20.6,31.54l.09-357.88Z"/>
  <path class="cls-1" d="M562.42,549.55l13.44,21.57,27.66,45.2,14.63,23.37,10.85,18.14,25.77,41.29c.74,1.19,1.15,4.03.72,5.32l-16.58.18c-2.51.03-4.84-2.09-6.15-4.24l-15.99-26.3-219.22-357.17v-2.93c-.02-.55,1.82-.7,2.39-.7l15.12.04c2.93,0,4.18,2.4,5.65,4.82l27.19,44.68,19.05,30.98,15.92,26.24,13.86,22.04,17.9,29.25,17.85,29.27,19.75,32.07,10.18,16.88Z"/>
  <path class="cls-1" d="M613.44,698.04c1.06,1.72,2.71,3.94,2.15,5.68l-15.77.45c-2.36.07-4.84-1.77-6.13-3.88l-27.29-44.67-5.79-9.26-17.53-28.62-16.37-26.51-33.37-54.51-13.38-21.73-26.27-42.68-31.16-50.74-12.21-19.89-29.34-47.64c-7.25-12.37-14.23-23.89-22.38-35.69l-.62-4.37h18.94s5.57,8.57,5.57,8.57l14.66,23.43,26.91,43.85,16.39,26.66,19.77,32.37,19.78,32.21,22.43,36.4,12.64,20.45,20.47,33.65,17.93,28.97,20.15,32.79,22.76,37.05,17.05,27.66Z"/>
  <path class="cls-1" d="M369.06,703.37c-6.29.87-11.75.8-18.08.2l-.02-306.97-.84-3.01c-.21-.75,1.91-1.62,2.73-1.69l16.19,25.59.03,285.87Z"/>
  <path class="cls-1" d="M662.03,624.9c-.74.31-2.56.77-2.87.72l-15.19-26.1-.02-285.13,18.05.02.02,310.49Z"/>
  <path class="cls-1" d="M402.93,703.4l-15.19.77c-1.61.08-3.69-2.21-3.69-4.35v-249.55c0-.61,1.04-2.61,1.55-2.35l2.33,1.17,15,25.53v228.78Z"/>
  <path class="cls-1" d="M628.13,562.89c0,3.56,2.4,5.84-1.44,7.69l-16.74-27.14-.02-229.05,15.71-.32c4.56-.09,2.49,4.09,2.49,6.5v242.33Z"/>
  <path class="cls-1" d="M594.93,513.06c-.64.57-2.92,1.48-3.24.96l-1.79-2.93-13.85-23.6.02-173.2,18.8-.23.05,199Z"/>
  <path class="cls-1" d="M436.97,703.44l-15.22.73c-1.66.08-3.64-2.21-3.64-4.31v-194.63c0-.57,1.01-2.58,1.49-2.3l2.11,1.25,15.22,26.32.03,172.94Z"/>
</svg>